<?xml version="1.0" encoding="utf-8"?>
<!-- Generator: Adobe Illustrator 25.3.1, SVG Export Plug-In . SVG Version: 6.00 Build 0)  -->
<svg version="1.1" id="Layer_1" xmlns="http://www.w3.org/2000/svg" xmlns:xlink="http://www.w3.org/1999/xlink" x="0px" y="0px"
	 viewBox="0 0 1366 174" style="enable-background:new 0 0 1366 174;" xml:space="preserve">
<style type="text/css">
	.st0{opacity:0.5;fill:none;stroke:#E6E6E6;stroke-width:0.8;stroke-linecap:square;stroke-linejoin:round;stroke-miterlimit:10;}
	.st1{fill:#10532C;}
	.st2{fill:#1B8342;}
	.st3{fill:#42B549;}
	.st4{fill:#6BC4A4;}
	.st5{fill:#FCD72D;}
	.st6{fill:#FAAD1D;}
	.st7{fill:#F37B20;}
	.st8{fill:#ED3024;}
	.st9{fill:#9F1D20;}
	.st10{fill:#660C19;}
	.st11{fill:#96CAE6;}
	.st12{fill:#189DD6;}
	.st13{fill:none;stroke:#333333;stroke-linecap:square;stroke-miterlimit:10;}
	.st14{fill:#262626;}
	.st15{font-family:'Avenir-Roman';}
	.st16{font-size:72px;}
	.st17{opacity:0.75;fill:#FFFFFF;}
	.st18{opacity:0.38;}
	.st19{fill:#4D4D4D;}
</style>
<g>
	<g>
		<line class="st0" x1="44.7" y1="160.4" x2="44.7" y2="12.3"/>
	</g>
	<g>
		<line class="st0" x1="70.6" y1="160.4" x2="70.6" y2="12.3"/>
	</g>
	<g>
		<line class="st0" x1="96.6" y1="160.4" x2="96.6" y2="12.3"/>
	</g>
	<g>
		<line class="st0" x1="122.5" y1="160.4" x2="122.5" y2="12.3"/>
	</g>
	<g>
		<line class="st0" x1="148.4" y1="160.4" x2="148.4" y2="12.3"/>
	</g>
	<g>
		<line class="st0" x1="174.4" y1="160.4" x2="174.4" y2="12.3"/>
	</g>
	<g>
		<line class="st0" x1="200.3" y1="160.4" x2="200.3" y2="12.3"/>
	</g>
	<g>
		<line class="st0" x1="226.3" y1="160.4" x2="226.3" y2="12.3"/>
	</g>
	<g>
		<line class="st0" x1="252.2" y1="160.4" x2="252.2" y2="12.3"/>
	</g>
	<g>
		<line class="st0" x1="278.1" y1="160.4" x2="278.1" y2="12.3"/>
	</g>
	<g>
		<line class="st0" x1="304.1" y1="160.4" x2="304.1" y2="12.3"/>
	</g>
	<g>
		<line class="st0" x1="330" y1="160.4" x2="330" y2="12.3"/>
	</g>
	<g>
		<line class="st0" x1="15.4" y1="160.4" x2="352.1" y2="160.4"/>
	</g>
	<line class="st0" x1="15.4" y1="35.3" x2="352.1" y2="35.3"/>
	<line class="st0" x1="15.4" y1="66.5" x2="352.1" y2="66.5"/>
	<line class="st0" x1="15.4" y1="97.8" x2="352.1" y2="97.8"/>
	<line class="st0" x1="15.4" y1="129.1" x2="352.1" y2="129.1"/>
</g>
<rect x="16.7" y="142.2" class="st1" width="20.7" height="18"/>
<rect x="45.3" y="133.2" class="st2" width="20.7" height="27.1"/>
<rect x="73.9" y="124.2" class="st3" width="20.7" height="36.1"/>
<rect x="102.4" y="115.2" class="st4" width="20.7" height="45.1"/>
<rect x="131" y="106.1" class="st5" width="20.7" height="54.1"/>
<rect x="159.6" y="97.1" class="st6" width="20.7" height="63.1"/>
<rect x="188.2" y="88.1" class="st7" width="20.7" height="72.2"/>
<rect x="216.7" y="79.1" class="st8" width="20.7" height="81.2"/>
<rect x="245.3" y="70.1" class="st9" width="20.7" height="90.2"/>
<rect x="273.9" y="61" class="st10" width="20.8" height="99.2"/>
<rect x="302.5" y="52" class="st11" width="20.8" height="108.2"/>
<rect x="331" y="43" class="st12" width="20.8" height="117.3"/>
<line class="st13" x1="7.8" y1="160.4" x2="7.8" y2="12.3"/>
<line class="st13" x1="16.4" y1="169" x2="353.1" y2="169"/>
<text transform="matrix(1 0 0 1 13.3184 66.5245)" class="st14 st15 st16">vinplots</text>
<g>
	<path class="st17" d="M349,56v48c0,0.6-0.4,1-1,1l0,0c-0.6,0-1-0.4-1-1V56c0-0.6,0.4-1,1-1l0,0C348.6,55,349,55.4,349,56z"/>
	<path class="st17" d="M349,49v3c0,0.6-0.4,1-1,1l0,0c-0.6,0-1-0.4-1-1v-3c0-0.6,0.4-1,1-1l0,0C348.6,48,349,48.4,349,49z"/>
</g>
<g>
	<path class="st17" d="M321,64.6v41.9c0,0.6-0.4,1-1,1l0,0c-0.6,0-1-0.4-1-1V64.6c0-0.6,0.4-1,1-1l0,0C320.6,63.6,321,64.1,321,64.6
		z"/>
	<path class="st17" d="M321,58.5v2.4c0,0.6-0.4,1-1,1l0,0c-0.6,0-1-0.4-1-1v-2.4c0-0.6,0.4-1,1-1l0,0C320.6,57.5,321,57.9,321,58.5z
		"/>
</g>
<g>
	<path class="st17" d="M292.5,74.5V112c0,0.6-0.4,1-1,1l0,0c-0.6,0-1-0.4-1-1V74.5c0-0.6,0.4-1,1-1l0,0
		C292.1,73.5,292.5,74,292.5,74.5z"/>
	<path class="st17" d="M292.5,69V71c0,0.6-0.4,1-1,1l0,0c-0.6,0-1-0.4-1-1V69c0-0.6,0.4-1,1-1l0,0C292.1,68,292.5,68.5,292.5,69z"/>
</g>
<g>
	<path class="st17" d="M263.2,81.1v37.5c0,0.6-0.4,1-1,1l0,0c-0.6,0-1-0.4-1-1V81.1c0-0.6,0.4-1,1-1l0,0
		C262.8,80.1,263.2,80.5,263.2,81.1z"/>
	<path class="st17" d="M263.2,75.6v1.9c0,0.6-0.4,1-1,1l0,0c-0.6,0-1-0.4-1-1v-1.9c0-0.6,0.4-1,1-1l0,0
		C262.8,74.6,263.2,75,263.2,75.6z"/>
</g>
<g>
	<path class="st17" d="M234.9,87.7v33.1c0,0.6-0.4,1-1,1l0,0c-0.6,0-1-0.4-1-1V87.7c0-0.6,0.4-1,1-1l0,0
		C234.4,86.7,234.9,87.2,234.9,87.7z"/>
	<path class="st17" d="M234.9,82.8v1.5c0,0.6-0.4,1-1,1l0,0c-0.6,0-1-0.4-1-1v-1.5c0-0.6,0.4-1,1-1l0,0
		C234.4,81.8,234.9,82.2,234.9,82.8z"/>
</g>
<g>
	<path class="st17" d="M204.5,99v31.3c0,0.6-0.4,1-1,1l0,0c-0.6,0-1-0.4-1-1V99c0-0.6,0.4-1,1-1l0,0C204.1,98,204.5,98.4,204.5,99z"
		/>
	<path class="st17" d="M204.5,94.3v1.3c0,0.6-0.4,1-1,1l0,0c-0.6,0-1-0.4-1-1v-1.3c0-0.6,0.4-1,1-1l0,0
		C204.1,93.3,204.5,93.8,204.5,94.3z"/>
</g>
<g>
	<path class="st17" d="M177.7,107v28.7c0,0.6-0.4,1-1,1l0,0c-0.6,0-1-0.4-1-1V107c0-0.6,0.4-1,1-1l0,0
		C177.3,106,177.7,106.4,177.7,107z"/>
	<path class="st17" d="M177.7,102.7v1.1c0,0.6-0.4,1-1,1l0,0c-0.6,0-1-0.4-1-1v-1.1c0-0.6,0.4-1,1-1l0,0
		C177.3,101.7,177.7,102.1,177.7,102.7z"/>
</g>
<g>
	<path class="st17" d="M149.4,116.4v24.3c0,0.6-0.4,1-1,1l0,0c-0.6,0-1-0.4-1-1v-24.3c0-0.6,0.4-1,1-1l0,0
		C148.9,115.4,149.4,115.8,149.4,116.4z"/>
	<path class="st17" d="M149.4,112.7v0.6c0,0.6-0.4,1-1,1l0,0c-0.6,0-1-0.4-1-1v-0.6c0-0.6,0.4-1,1-1l0,0
		C148.9,111.7,149.4,112.1,149.4,112.7z"/>
</g>
<g>
	<path class="st17" d="M121,124.9v15.5c0,0.6-0.4,1-1,1l0,0c-0.6,0-1-0.4-1-1v-15.5c0-0.6,0.4-1,1-1l0,0
		C120.6,123.9,121,124.3,121,124.9z"/>
	<path class="st17" d="M121,120.9v1.4c0,0.5-0.4,0.9-0.9,0.9h-0.2c-0.5,0-0.9-0.4-0.9-0.9v-1.4c0-0.5,0.4-0.9,0.9-0.9h0.2
		C120.7,120,121,120.4,121,120.9z"/>
</g>
<g>
	<path class="st17" d="M35.7,148.6v4c0,0.6-0.4,1-1,1h0c-0.6,0-1-0.4-1-1v-4c0-0.6,0.4-1,1-1h0C35.3,147.6,35.7,148,35.7,148.6z"/>
	<path class="st17" d="M35.7,145.3v0.3c0,0.5-0.4,0.9-0.9,0.9h-0.3c-0.5,0-0.9-0.4-0.9-0.9v-0.3c0-0.5,0.4-0.9,0.9-0.9h0.3
		C35.3,144.4,35.7,144.8,35.7,145.3z"/>
</g>
<g>
	<path class="st17" d="M64.5,140.3v6.8c0,0.6-0.4,1-1,1l0,0c-0.6,0-1-0.4-1-1v-6.8c0-0.6,0.4-1,1-1l0,0
		C64,139.3,64.5,139.7,64.5,140.3z"/>
	<path class="st17" d="M64.5,137.4v0.1c0,0.5-0.4,0.9-0.9,0.9h-0.1c-0.5,0-0.9-0.4-0.9-0.9v-0.1c0-0.5,0.4-0.9,0.9-0.9h0.1
		C64.1,136.5,64.5,136.9,64.5,137.4z"/>
</g>
<g>
	<path class="st17" d="M93.7,131.8V143c0,0.6-0.4,1-1,1h0c-0.6,0-1-0.4-1-1v-11.2c0-0.6,0.4-1,1-1h0
		C93.3,130.8,93.7,131.3,93.7,131.8z"/>
	<path class="st17" d="M93.7,127.9v1.4c0,0.5-0.4,0.9-0.9,0.9h-0.1c-0.5,0-0.9-0.4-0.9-0.9v-1.4c0-0.5,0.4-0.9,0.9-0.9h0.1
		C93.3,127,93.7,127.4,93.7,127.9z"/>
</g>
<g class="st18">
	<g>
		<g>
			<g>
				<path class="st19" d="M248.5,68.5c0.1,0,0.1,0-0.3,0l-0.2,0L248.5,68.5z"/>
				<path class="st19" d="M246.2,68.2c-0.4,0-0.9,0-0.6,0.1c0.4,0,0.5,0,0.9,0c0.3,0,0.6,0.1,0.5,0.1c0.1,0,0.5,0,0.7,0.1
					C247.3,68.4,246.8,68.3,246.2,68.2C246,68.2,246.2,68.2,246.2,68.2z"/>
				<path class="st19" d="M212.7,64.4l0.2,0.1C212.9,64.4,212.8,64.4,212.7,64.4z"/>
				<path class="st19" d="M191.9,62.7c0.2,0,0.2-0.1,0.2-0.2C192,62.6,191.9,62.6,191.9,62.7z"/>
				<path class="st19" d="M188.4,61.7c0.1,0,0.1,0,0.2,0.1C188.5,61.7,188.4,61.6,188.4,61.7z"/>
				<path class="st19" d="M212.7,64.4l-0.5-0.2C212.2,64.3,212.5,64.3,212.7,64.4z"/>
				<path class="st19" d="M241.6,68c0.1,0,0.2,0,0.3,0L241.6,68C241.6,68,241.6,68,241.6,68z"/>
				<path class="st19" d="M221.9,64.8l0.2,0c0.1,0,0.1-0.1,0.2-0.2L221.9,64.8z"/>
				<path class="st19" d="M229,65.6c-0.2,0-0.2,0.3-0.3,0.4c0.1-0.1,0.2-0.2,0.4-0.2C229,65.7,229,65.7,229,65.6z"/>
				<path class="st19" d="M240,67.4l0.2,0C240.2,67.4,240.1,67.4,240,67.4z"/>
				<path class="st19" d="M216.9,64.2c0-0.1,0-0.1-0.1-0.2C216.9,64.1,216.9,64.1,216.9,64.2z"/>
				<path class="st19" d="M21.6,85C21.6,84.9,21.5,84.9,21.6,85C21.5,85,21.5,85,21.6,85z"/>
				<polygon class="st19" points="13.5,86.5 13.6,86.5 13.6,86.5 				"/>
				<path class="st19" d="M181.8,60.5C181.9,60.5,181.9,60.5,181.8,60.5C182,60.5,181.9,60.5,181.8,60.5z"/>
				<path class="st19" d="M121.8,62.9c0.7,0.7-1,1.1,0.1,1.8C121.7,64.4,122.6,63.3,121.8,62.9z"/>
				<path class="st19" d="M241.4,68l-0.3,0C241.2,68,241.3,68,241.4,68z"/>
				<path class="st19" d="M121.8,64.7L121.8,64.7l0.1,0.1C121.9,64.7,121.9,64.7,121.8,64.7z"/>
				<path class="st19" d="M166.7,60.7c0,0.1,0.1,0.2,0.2,0.3C166.9,61,166.9,60.9,166.7,60.7z"/>
				<path class="st19" d="M178,61.9l-0.3-0.1C177.8,61.9,177.9,61.9,178,61.9z"/>
				<path class="st19" d="M160.9,61.9c-0.2-0.1-0.2-0.2-0.4-0.1c0,0,0,0.1,0.1,0.1C160.7,61.8,160.8,61.7,160.9,61.9z"/>
				<path class="st19" d="M154.9,62c0,0.1,0.1,0.1,0.1,0.2c0.1,0,0.1,0,0.2,0L154.9,62z"/>
				<path class="st19" d="M39.6,81.4c-0.2-0.1-0.3-0.2-0.4-0.3C39.4,81.3,38.5,81.6,39.6,81.4z"/>
				<path class="st19" d="M241.6,68c0,0-0.1,0-0.2,0C241.4,68,241.5,68,241.6,68C241.6,68,241.6,68,241.6,68z"/>
				<path class="st19" d="M160.8,68.2l-1-0.1C160.2,68.1,160.5,68.2,160.8,68.2z"/>
				<path class="st19" d="M82.2,74.3L82,74.4C82.1,74.4,82.1,74.4,82.2,74.3z"/>
				<path class="st19" d="M157.1,68.3c-0.2-0.3-0.4-0.4-0.6-0.5c0,0.1-0.1,0.1-0.1,0.2L157.1,68.3z"/>
				<path class="st19" d="M39.2,81.1L39.2,81.1L39.2,81.1z"/>
				<path class="st19" d="M33.2,83c0.9-0.1,0.3-0.5,0.5-0.7c1-0.3,0.6,0.2,1,0.3c0.6-0.2,1.1-0.7,1.6-0.8c0.1,0.1,0.2,0.1,0.1,0.2
					c0.6-0.5,2.1-0.4,2.8-1.1c0.1,0,0.1,0.1,0.1,0.1c-0.2-0.2-0.3-0.5-0.3-0.6c0.4-0.1,0.7-0.5,0.9-0.2c-0.2,0-0.2,0.2-0.3,0.3
					l0.4-0.2c0.5,0.4-0.5,0.3-0.5,0.6c0.8-0.3,1.7-0.9,2.3-0.9c0.2,0.5-1.4,0.5-0.5,0.7l-1,0c0.9,0.6-0.6,0.1,0.3,0.7
					c1.3-0.1,1.4-0.5,2.7-0.6c0.2-0.3-0.2-0.4,0-0.7c1.7-0.9,1.7,1,2.9,0.1c0.3-0.4,0.2-1.1,1.3-0.9L47.2,80c1.3-0.2,0.5-1,1.9-0.8
					c-0.2,0.3-0.9,0.4-0.7,0.4c1,0.4,0.5-0.5,1.2-0.6l0.3,0.5c1.3-0.3,2.7-1,4.1-1.4c0,0.2-0.3,0.4,0.1,0.6c1.8-0.6,4-0.6,5.8-0.5
					l0.6-0.7c0.2,0,0.3,0.2,0.2,0.4c0.7,0.1,0-0.4,0.2-0.7c0.4-0.1,0.6,0.3,0.4,0.5c1.1-0.7,3.3-1.7,4.7-1.2l-0.2,0.2
					c1.1,0.1,0.9-1.5,1.9-1.1l-0.2,0.1c2.2-0.1,4.6-1.1,6.4-0.3c0.1-1.1,2.2,0.1,2.1-1.3c1.4,0.5,1.1,0.8,2.9,1.1
					c0.5,0,0.6-1,1.1-1.3l0.1,0.8l0.7-0.9l0.6,0.9l0.5-0.3c-0.2,0-0.5-0.3-0.5-0.5c0.8-0.5,2.2,0.2,2.3,0.7l1.9-0.9
					c0,0.3-0.3,0.5-0.6,0.7c1-1,0.3,0.8,1.2-0.1c-0.2-0.2,0-0.5,0-0.7c0.6,0.4,1.7,0.3,2.5,0l-0.1,0.6c1.5-0.1,3.1-0.7,4.8-0.9
					c-0.6-0.2-0.6-1.2-0.2-1.4l0.3,0.9c0.2-0.6-0.6-0.3,0-1c0.6,0,0.6,1,0.2,1.3l0.7-0.4c0.1,0.3-0.1,0.4-0.1,0.8
					c0.2-0.6,1.4,0.7,1.8-0.3l0.1,0.3c1.7-0.2,2.4-0.6,3.8-0.8c-0.1-0.8,0.5-0.7,0.8-1.4c1,0.1,2.2,0.6,3.4,0.4
					c0.8-0.5,0.2-0.7,0.5-1.2c0.2,0.7,1.4,0.5,0.8,1.1c1.4-0.3,1.8-0.4,3.6-1.1c-0.2-0.3-0.5-0.4-0.4-0.7c0.3-0.2,0.8,0.2,0.8,0.6
					l-0.1,0.1c2-1.3,5,1.7,6.5,0l-0.1,0.1l1.6-1c0.8,0.1-0.4,0.6,0.2,1c1.7-1.4,2.9-0.1,4.4-1.1c1.4,2.1,4.2-0.5,5.9,0.8l-0.1-0.5
					c0.4-0.6,0.5,0.3,0.8,0.4c-0.1-0.4-0.5-0.4-0.3-0.8c3.4-0.9,7.2,0.2,10.8,0.5c1.3,0.1,0.6-2.8,2.3-1.6l-0.4,1
					c2.6-1.3,5.4-0.3,7.9-1.4c-0.1,0.2-0.1,0.5-0.4,0.5c0.6,0.7,2-0.1,2-0.6c0.4,0,0.1,0.5,0.4,0.8c0.6,0.4,1.3-1,1.7-0.3
					c0.1,0.1-0.1,0.2-0.2,0.3c0.3-0.4,1.7,0,1.3-0.8c1,0.3,1.8-0.4,2.6,0c0.5-0.9,1.7,0.4,1.8-0.9c0,1.3,1.7,1,2.3,0.4
					c-0.2,0.4,0.5,0.4,0.3,0.9c0.7,0,1.3-0.3,1.2-1c1.3,1.5,2.6-1.3,3.3,0.6c2.1-0.7,4-1.2,5.9-1.6c-0.1,1.2-2.1,0.2-2,1.5
					c1.8-0.6,2.8-1.6,4.6-1.4c0.5,0.2-0.3,0.5-0.4,0.7c1.8-0.5,3.4,0,5-0.6c0,0.1-0.2,0.2-0.3,0.3c0.3,0,0.7,0.2,0.7-0.4l-0.3,0.1
					c-0.5-0.8,1.2-1.6,1.3-2c-0.5,1.5,1.6,0.4,0.7,2.3c0.2-0.1,0.5-0.3,0.4-0.7c0.3,0.1,0.4,0.3,0.1,0.7c1.1-0.3,0.7-0.8,1.7-0.8
					c0,0.2-0.2,0.3-0.3,0.6c0.5-0.5,1-1,1.9-0.8c-0.1,0.1,0,0.3-0.2,0.3c1.5-0.1,2.5-1.3,4.1-0.8c-0.5,1,0.5,0.3,0.6,1.2l0.9-0.3
					l-0.3-0.4c0.8,0,1.4-0.6,2.1-0.3L191,66l1.4-0.1l-0.8-0.3c0.8-0.4-0.1-1.1,1-0.8c-0.2,0.1,0.8,0,1.1,0.5l0,0
					c0.4-0.3,0.8-0.5,1.3-0.3c0.1,0.3-0.1,0.9-0.1,1.1c0.4-0.7,1.8-0.2,2.3-0.9c-0.2,0.2-0.2,0.6-0.1,0.7l0.3-0.5
					c0.3,0.2,0.4,0.3,0.3,0.6c1.1,0.1-0.3-1,0.9-0.6c-0.1,0-0.1,0.1-0.3,0.2c1.3,0.3,2.5-0.3,3.6,0c0.3,0.8-1,0.2-0.7,0.8
					c1.7-0.1,3.5-0.8,5.1-0.6l-0.3-0.1c0.3-1,1.2,0.5,2,0.1c-0.2,0.1-0.3,0.5-0.2,0.4c1.1,0.2,2.3-0.2,4-0.4l-0.2,0.2
					c0.6,0.2,1.7,0.2,2.4,0.3c0.2-0.2,0.6-0.2,0.4-0.5c1,0.7,2.1,0.5,3.1,0.4c1-0.1,2-0.3,2.9,0.3c-0.2,0-0.6,0.1-0.4,0.2l1.7-0.1
					c-0.1-0.3-0.2-0.2-0.5-0.5c0.2-0.2,0.7-0.3,1.1-0.3c-0.8,0.2,0,0.5,0.3,0.7c0-0.1,0.1-0.2,0.1-0.3c0.8,0.6,0.2-0.6,1.3-0.1
					l-0.1,0.1c0.4,0,0.9-0.2,1.3-0.1c0.2,0.3-0.5,0.1-0.5,0.4c0.7,0,1.4-0.5,1.9-0.1c-0.3,0.1-0.7,0-1,0.1c0.6,0.4,0.7,0.3,1.2,0.4
					l0,0l1.1,0.2l-0.3-0.1c0.9-0.7,1.7,0,2.9-0.4c-1.1,0.3-0.2,0.2-0.3,0.5c0.3,0.1,0.7,0.2,0.6,0.3c0.6-0.2,0.9,0.2,1.6-0.1
					c0,0.1,0.6,0,0.4,0.2c0.7,0-0.1-0.2-0.1-0.3c1.1-0.2,2.5,0.5,4,0.2c1.3,0,1.6-0.2,2.8-0.2c0.4,0.1-0.4,0.2-0.4,0.2
					c0.7,0.1,1.2,0.2,1.8,0.2c-0.1,0,0,0.1,0.2,0.1c0.5,0,0.4-0.1,1,0c-0.1,0-0.3,0.1-0.5,0.1c0.6,0,1.2,0,1.8,0
					c0.2,0.1-0.4,0-0.6,0.1c0.7,0,1.8,0.1,2,0.1l-0.4-0.1c0.3,0,0.1,0.1-0.1,0.1c-0.6,0-0.8-0.1-0.9-0.1l0.4,0
					c-0.4-0.2-1.8-0.2-2.6-0.2l0.4-0.1l-0.9,0.1c-0.2-0.1-0.3-0.2,0.1-0.2c-0.6-0.2-0.6,0-1.1-0.2c-0.1,0,0,0,0,0l-0.6,0
					c0.1,0-0.1-0.2,0.3-0.1c-1.1-0.3-1.8,0-2.2-0.3l0.1,0c-1.5-0.1-0.2,0.2-1.3,0.3c-0.2-0.2-0.5-0.4-0.7-0.6l-0.2,0.2
					c-0.2,0-0.5-0.1-0.4-0.2c-0.6,0.1,0.1,0.1-0.3,0.2c-0.7-0.3-2.1-0.1-2.2-0.5c-0.3,0.2,0.7,0.2-0.1,0.3c-0.2-0.5-0.9,0-1.6-0.3
					c0.2-0.2,0.9,0,0.2-0.3c-0.5,0.4-1.3-0.3-1.9-0.2c-0.1,0.4-1.3,0-2.3,0.1c0.1-0.1-1.8-0.4-2.7-0.7l0-0.1
					c-0.2,0.4-1.2,0.3-1.8,0.3c0.1-0.3,0.2-0.4,0.6-0.5l-0.6-0.1c-0.2,0.1-0.4,0.2-0.8,0.2l0.2-0.4c-0.9-0.1-1.8,0.3-2.9-0.1
					c-0.1,0.4,0.8,1.1-0.4,1.3c0-0.2,0-0.6,0.3-0.6c-0.1,0-0.4,0.1-0.6,0l0.5-0.3c-0.5-0.2-0.3,0.3-0.7,0.2c0-0.3-0.3-0.2-0.2-0.5
					c0.1,0,0.3,0.2,0.5,0.1c-0.5-0.1-1-0.3-1.2-0.6c0,0.2,0,0.4-0.4,0.4c-0.9,0-0.3-0.4-0.8-0.6c-0.2,0.2-0.8-0.1-0.8,0.4
					c-0.3,0-0.3-0.3-0.4-0.4c-0.5,0.2-2.1-0.1-1.6,0.5l0.1,0c0,0,0,0-0.1,0l0,0l0,0c-1.5,0.4-3-0.5-4.5-0.4l0-0.2
					c-0.9,0.1-1.9,0-2.6,0.4c-0.3,0-0.6-0.4-0.5-0.6c-0.7,0.1-0.8,0.3-1.7-0.1c0.7-0.3-0.2-0.3,0.7-0.2c-0.9-0.2-1-0.6-2-0.1
					c0.3-0.5-0.6-0.7-1-0.6l0.6,0.4c-0.5,0-0.9,0-1.3-0.1l0.3-0.7c-1.7-1-3.2,1.3-4.5-0.3c-0.5,0.5,0.9,0.4,0.5,1
					c-0.8-0.1-1.6-1.2-1.9-1.3c-1.1-0.5-1.1,1-2.2,0.7c0.1,0.3,0.3,1-0.6,1.2c-0.8-0.1-1-1.2-0.4-1.4c0.2,0,0.3,0.1,0.3,0.2
					c0.3-0.1,0.6-0.2,0.3-0.5l-0.1,0.3c-0.4-0.3-1.5-0.3-1.2-0.8c-0.6,0.2-0.3,0.4,0.2,0.6c-1-0.5-1.6-0.1-2.7-0.4
					c0.2,0.2,0.3,0.5,0.1,0.5c-1.6-0.4-0.7,0.5-1.8,0.6c-0.6-0.5,0.2-1-0.8-0.7c-0.7-0.3-0.1-0.8,0.1-1c-1,0.5-1.8-0.4-2.4-0.6
					l0.5-0.2c-0.3,0.1-0.6,0.1-0.8,0.1l0.3,0.6c-0.3-0.1-0.6-0.1-0.5-0.4c-0.3,0.4,0.2,1-0.4,1.5c-0.4-0.3-1.2,0.3-1.4-0.5
					c1.3,0.3-0.1-0.8,0.9-0.9c-0.2,0.1-0.5,0.1-0.8,0c0-0.1,0-0.2,0.1-0.2c-1.2-0.8-0.6,0.9-1.8,0.8c0.2-0.4-0.3-0.9-0.5-0.8
					c0.5,0,0.2,0.8-0.2,1.1c-0.8-0.4-0.9,0.2-1.3,0.2l0.5,0.2c-0.2,0.5-0.6,0.4-1.1,0.5c0-0.4,0.5-0.2,0.3-0.4
					c-0.6,0.8-1.4-0.9-2.3-0.3c-0.4-0.3,0-0.9-0.4-1.1c-1,0.6-1.1-0.7-2.1-0.2c0.3,0.6,0.3,0.5-0.4,1.1l1.7-0.4l-1.1,0.9
					c0.5,0,1.1-0.4,1.4-0.3c-0.5,0.5-0.5,0.4-0.2,0.9c-0.7-1-1.4,0.5-2.2-0.1l0-1.6c-1.2-0.7-2.2,0.8-3.7,0.4l0.5,0.3
					c-0.2,0.6-1,0.1-1.5,0.4c0-0.5-0.3-0.7-0.5-1.1c0,0.4-1.2,0-1.3,1.1l-0.7-0.7c-1.3-0.3-1.4,1.6-2.6,1.4c0.4-0.6-0.2-1,0.6-1.4
					c-0.4,0-0.8-0.1-0.8,0.3c-0.2-0.3-1.1,0.8-1.5,0.2c-0.2,0.2-0.2,0.8-0.7,0.8c-0.1-0.1,0-0.3,0-0.3c0,0.3-0.7,0.4-0.3,1
					c-1.3-1.7-3.5,0.2-4.6-1.3c-0.9,0.2-1.9,0.4-2.8,0.5c0-0.2,0-0.3,0.1-0.2c-1.1-0.5-0.6,1.7-1.9,1.1c-0.7-0.9,0.7-0.5,0.2-0.9
					c-0.3-1.9-1.5,0.3-2.4-0.8l0.2-0.1c-0.7-0.6-1.6,0.8-2.6,0.7c0,0,0-0.2,0-0.3c-0.7,1-2,1.4-3,1.7c0.3-0.8,0.4-0.4,0.2-1.2
					c-0.5,0.1,0.2,1.2-0.7,1.5c-0.3-0.4-1-0.7-1.1-1.5l0.9-0.1c-0.5-1-1.1,0.1-1.6-0.1l0-0.5c-1.3,0.2-1.3,1.4-2.7,1.4l0.2,0.3
					c-0.7,1.2-0.7-0.6-1.4,0.3l-0.3-1.2c-0.5,0.3-1.7,1.3-2.6,1.5c0.5-0.9,1.5-1.4,2.1-2c-0.5,0-1.7,0.2-1.9,0.8
					c0.2-0.1,0.4-0.4,0.7-0.3c-0.6,1-1.3,1.5-2.4,1.5c0-2.3-2.7-0.4-3.6-2.1c-1.7,1-3.6-0.1-5.7,0.2c0.9,1.7-0.6,0.1-0.3,1.9
					c-0.5,0.2-0.7,0.2-0.7,0l-1.6-0.9c-0.4-0.5,0.4-0.4,0.3-0.8c-1.1,0-0.5-0.7-1.3-1.1c0.2,0.6-0.3,1-0.9,0.8l0.9,0.8
					c-1.4,1.1-1.4-1.4-2.8-0.3l0.4-0.6c-0.7,0.4-2.8,0.3-3.4,1.8c-0.2-0.2-0.4-0.7-0.1-0.8c-1.9,0-3.9,2-5.4,1.3l0.1-0.4
					c-0.3,0.2-0.5,0.9-1,0.5c0-0.2,0.1-0.4-0.1-0.5c-0.2,0.2-0.8,0.9-1.3,0.7l0.3-0.5c-1.9-0.3-2.6,1.5-4.1,2
					c-0.2-1.3-1.6-1.5-2.3-1.6l0-0.2c-2.1,0.1-3.4,1.5-5.3,2.3c-1.4-1.1-4.1,0-6.1-0.3c0.3,0.2,0.1,0.9-0.2,1.1
					c-0.5-0.2-1.1,1-1.2-0.1l0.2,0c-0.5-1-1.4-0.5-2.1-0.5l0.1,1.4c-2.2-1.7-4.8,1.6-6.1,0c-0.4,0.4-1,0.5-1.4,0.9l-0.1-0.7
					C76.2,69,75.5,69,74,69.5l0.2-0.6c-0.9,0.1-0.8,2.2-1.6,2.4l-0.4-0.9c-1.5,0.3-3.2-0.2-4.6,1c0-0.1,0-0.4,0.2-0.5
					c-0.7,0.1-2.9,0-2.4,1.2c-0.2-0.8-1.6,0.3-2.3,0.8l0-0.6c-0.5,0.9-0.5,1.1-1.5,1.5c-0.2,0-0.3-0.4,0-0.3
					c-0.8-0.1-0.5,0.7-1.5,0.6l0.3-0.4c-0.8,0.1-0.7,0.3-1,0.8c-0.4,0.3-1.5,0.2-1.7-0.3c0,0.3-0.4,0.8-0.9,0.8
					c-0.1-0.2,0-0.3,0.1-0.4c-1.4-0.1-1.8,1.1-2.8,0.7c-0.1-0.2-0.1-0.2-0.2-0.3c1-0.2,1.9-0.4,1.8-0.3c-0.1-0.5-1-0.4-0.4-1.2
					c-0.6,0.5-1.6,1.6-2.4,1.6c0,0-0.1-0.1-0.1-0.1l0.1-0.1c-0.2,0-0.4,0.1-0.5,0.2c-0.3,0-0.5,0-0.7,0c-0.2-0.4-1,0-1.4,0.1
					c0.1,0.5-0.4,0.5,0.2,0.8c-0.1,0,0.1-0.1,0.3-0.2c0.1,0,0.1-0.1,0.2-0.1c0,0,0,0,0,0.1c0.3-0.1,0.6-0.2,1-0.3
					c-0.3,0.3-0.6,0.6-1.1,0.5c-0.1,0.4-0.3,0.7-0.4,0.9c-0.7-0.6-1.9-0.6-2.1-1c-1.2,0.6-3,0.9-3.6,2c-0.3,0.2-0.5-0.1-0.6-0.2
					c0.2-0.1,0.4-0.2,0.5-0.3c-0.7,0.4-2.1,0.6-2.2,1.2c-1,0,0.4-0.6-0.8-0.2l0.1-0.2c-1.3-0.1-2.2,0.5-3.2,1.1c-1,0.6-2,1-3.4,1
					c0.2,0,0.3,0,0.4,0.1c-1.6,0.2-3.2,0.7-4.7,1.2c-1.6,0.5-3.1,0.9-4.7,1.2c-0.9,0.2-0.9,0.4-1.4,0.6L24.5,83l-0.8,0.5
					c-1.2,0.5-2.3,0.3-3.8,1l0.2,0c-0.6,0.2-1.8,0.6-1.7,0.5c-0.1,0-0.2,0.1-0.4,0.2l0,0l-1.4,0.5c-1.1,0.3,0.1-0.2-1.5,0.4
					c-0.6,0.2-1.7,0.6-1.5,0.5c0.2-0.1,0.6-0.2,0.6-0.2l-0.5,0.2c-0.1,0-0.5,0.1,0.8-0.2l0.9-0.2l0.3,0l-0.8,0.2
					c0.5-0.1,0.7-0.1,1.1-0.2c0.1,0,0.2,0,0.4,0c0.3-0.1,0.6-0.2,0.9-0.3c0.1,0-0.4,0.2,0.2,0.1c0.4-0.1-0.4,0,0.3-0.2
					c0.5,0,0.4,0,0.9-0.1c0.1,0,0,0.1-0.2,0.1c0.5-0.1,1.3-0.3,1.5-0.4c0.5,0,1.6-0.4,1.6-0.2c0.1-0.1,0.8-0.3,1.2-0.4
					c-0.7,0.5,1.6-0.3,1.5,0.1c0.5-0.4,2.1-0.6,3.1-1c-0.1,0-0.2,0.1-0.2,0.1c0.6-0.1,0.8,0,1.2,0c0-0.3,0.9-0.6,1.3-0.9
					c0.8,0.2-0.3,0.5,0,0.8c-0.1-0.3,1.2-0.5,0.9-0.7c0.6,0.1,0.5,0,0.9,0.3c0-0.5,0.5-0.2,0.9-0.6c0.9,0.1,0.3,0.4,1.2,0.1
					C33.9,82.7,33.2,83,33.2,83z M53.9,78C53.9,78,53.9,78,53.9,78c-0.2,0.1-0.3,0.1-0.4,0.1C53.5,78.1,53.7,78,53.9,78z M55.6,77.6
					c-0.2,0-0.5,0.1-0.8,0.1c-0.1-0.2-0.1-0.4,0.1-0.4C54.9,77.5,55.3,77.5,55.6,77.6z M51.2,74.9c0.3-0.1,0.4-0.1,0.4,0
					c-0.1,0-0.3,0.1-0.5,0.2c0,0,0,0,0,0.1C51.1,75.1,51.1,75,51.2,74.9z"/>
				<path class="st19" d="M50.8,75.7c0,0-0.1,0-0.1,0.1c0.1,0,0.1,0.1,0.2,0.1c0-0.1,0-0.1,0.1-0.2C50.9,75.6,50.9,75.7,50.8,75.7z"
					/>
				<path class="st19" d="M213,64.5L213,64.5C213,64.5,213,64.5,213,64.5C213,64.5,213,64.5,213,64.5z"/>
				<polygon class="st19" points="80.3,74.9 80.2,74.8 80.1,74.9 				"/>
				<path class="st19" d="M222.8,66.6c0,0,0.1,0.1,0.1,0.1C222.9,66.7,222.8,66.6,222.8,66.6z"/>
				<path class="st19" d="M227,66.9l0.6,0.1C227.3,67,227.2,67,227,66.9z"/>
				<path class="st19" d="M230.3,67.3c0,0,0.1-0.1,0.1-0.1l0,0L230.3,67.3z"/>
				<path class="st19" d="M178.2,66.8c0,0-0.1,0-0.1,0C177.8,66.9,178,66.9,178.2,66.8z"/>
				<path class="st19" d="M193.7,65.2c-0.2,0.1-0.3,0.2-0.5,0.3C193.5,65.5,193.7,65.6,193.7,65.2z"/>
				<path class="st19" d="M160.9,68.2C160.9,68.2,160.9,68.2,160.9,68.2l-0.1,0L160.9,68.2z"/>
				<path class="st19" d="M192.5,65.5c0.3,0.1,0.5,0.1,0.7,0C193,65.4,192.7,65.4,192.5,65.5z"/>
				<path class="st19" d="M244.5,68.2l0.2,0c0,0,0,0,0,0L244.5,68.2z"/>
				<path class="st19" d="M244.7,68.3l0.2,0C244.7,68.2,244.7,68.2,244.7,68.3z"/>
				<path class="st19" d="M245.2,68.3l-0.4,0C245,68.3,245.1,68.3,245.2,68.3z"/>
				<path class="st19" d="M240.1,67.9L240.1,67.9C240.1,67.9,240.1,67.9,240.1,67.9z"/>
				<path class="st19" d="M238.8,67.8c0.3,0,0.8,0.2,1.2,0.2l0,0C239.9,68,239.1,67.8,238.8,67.8z"/>
				<path class="st19" d="M233.4,66.4l1.1,0.2c-0.2-0.1-0.4-0.3,0.1-0.2C233.2,65.9,234.9,66.6,233.4,66.4z"/>
				<path class="st19" d="M230,65.8c0.6,0,0-0.2,0-0.2C229.7,65.7,229.6,65.7,230,65.8z"/>
				<path class="st19" d="M205.3,63.5l0.1-0.5C204.9,63,205.4,63.2,205.3,63.5z"/>
				<polygon class="st19" points="200.4,65.9 200.9,66.3 201.1,65.8 				"/>
				<polygon class="st19" points="197.8,61.9 198,61.9 197.2,62 				"/>
				<path class="st19" d="M155.9,61.2l0.2,0.9C156.4,62,156.4,61,155.9,61.2z"/>
				<path class="st19" d="M137.9,63c-0.2-0.5-0.8-0.7-1-0.2C137.3,62.7,137.7,63.1,137.9,63z"/>
				<polygon class="st19" points="83.9,67.8 84.3,67.4 83.6,67.8 				"/>
			</g>
		</g>
	</g>
</g>
</svg>
